<svg width="176" height="25" viewBox="0 0 176 25" fill="none" xmlns="http://www.w3.org/2000/svg">
<path d="M10.0781 5.90457L5.1875 24.5921H0.359375L7.46875 1.84207H10.4844L10.0781 5.90457ZM13.9375 24.5921L9.01562 5.90457L8.5625 1.84207H11.625L18.7969 24.5921H13.9375ZM14.1094 16.1077V19.9046H3.84375V16.1077H14.1094ZM25.125 0.576447V24.5921H20.75V0.576447H25.125ZM34.0156 7.68582L28.0625 16.0921L24.4844 20.1077L22.9375 16.7796L25.6875 12.7639L28.7969 7.68582H34.0156ZM29.4531 24.5921L25.7656 16.8264L28.7812 14.0452L34.4688 24.5921H29.4531ZM43.5156 20.7014V12.8889C43.5156 12.3785 43.4531 11.9723 43.3281 11.6702C43.2135 11.3681 43.0365 11.1494 42.7969 11.0139C42.5677 10.8681 42.2865 10.7952 41.9531 10.7952C41.5781 10.7952 41.2656 10.8733 41.0156 11.0296C40.7656 11.1858 40.5781 11.4098 40.4531 11.7014C40.3385 11.9931 40.2812 12.3421 40.2812 12.7483H35.8906C35.8906 12.0192 36.0312 11.3317 36.3125 10.6858C36.5938 10.0296 37.0052 9.45665 37.5469 8.96707C38.099 8.46707 38.7552 8.07645 39.5156 7.7952C40.276 7.51395 41.1302 7.37332 42.0781 7.37332C43.2031 7.37332 44.2031 7.56603 45.0781 7.95145C45.9531 8.32645 46.6458 8.9254 47.1562 9.74832C47.6667 10.5712 47.9219 11.6389 47.9219 12.9514V20.4827C47.9219 21.4306 47.9688 22.2014 48.0625 22.7952C48.1667 23.3889 48.3177 23.8994 48.5156 24.3264V24.5921H44.1094C43.9115 24.1233 43.7604 23.54 43.6562 22.8421C43.5625 22.1337 43.5156 21.4202 43.5156 20.7014ZM44.0469 14.2639L44.0625 16.8889H42.4531C42.0365 16.8889 41.6719 16.9567 41.3594 17.0921C41.0573 17.2275 40.8021 17.4202 40.5938 17.6702C40.3854 17.9098 40.2292 18.191 40.125 18.5139C40.0312 18.8369 39.9844 19.1806 39.9844 19.5452C39.9844 19.9514 40.0417 20.2952 40.1562 20.5764C40.2708 20.8577 40.4427 21.0712 40.6719 21.2171C40.901 21.3629 41.1719 21.4358 41.4844 21.4358C41.9635 21.4358 42.3802 21.3369 42.7344 21.1389C43.0885 20.941 43.349 20.7014 43.5156 20.4202C43.6927 20.1389 43.75 19.8785 43.6875 19.6389L44.6875 21.3421C44.5625 21.7275 44.3906 22.1285 44.1719 22.5452C43.9635 22.9619 43.6979 23.3473 43.375 23.7014C43.0521 24.0556 42.651 24.3473 42.1719 24.5764C41.7031 24.7952 41.1458 24.9046 40.5 24.9046C39.5938 24.9046 38.7656 24.6962 38.0156 24.2796C37.2656 23.8629 36.6719 23.2796 36.2344 22.5296C35.8073 21.7796 35.5938 20.8889 35.5938 19.8577C35.5938 19.0035 35.7292 18.2327 36 17.5452C36.2812 16.8473 36.6979 16.2587 37.25 15.7796C37.8021 15.29 38.5 14.915 39.3438 14.6546C40.1875 14.3942 41.1771 14.2639 42.3125 14.2639H44.0469ZM59.3438 20.8577V0.592072H63.7344V24.5921L59.7656 24.6077L59.3438 20.8577ZM50.5781 16.7327V15.6077C50.5781 14.2327 50.6927 13.0296 50.9219 11.9983C51.1615 10.9671 51.5156 10.1077 51.9844 9.4202C52.4531 8.7327 53.026 8.22228 53.7031 7.88895C54.3906 7.5452 55.1771 7.37332 56.0625 7.37332C56.8646 7.37332 57.5677 7.57645 58.1719 7.9827C58.7865 8.37853 59.3073 8.93582 59.7344 9.65457C60.1615 10.3733 60.5052 11.2223 60.7656 12.2014C61.026 13.1806 61.2083 14.2535 61.3125 15.4202V17.0452C61.1875 18.1494 60.9948 19.1806 60.7344 20.1389C60.4844 21.0973 60.1406 21.9306 59.7031 22.6389C59.276 23.3473 58.7604 23.9046 58.1562 24.3108C57.5521 24.7067 56.849 24.9046 56.0469 24.9046C55.1615 24.9046 54.375 24.7275 53.6875 24.3733C53.0104 24.0192 52.4375 23.4983 51.9688 22.8108C51.5104 22.1129 51.1615 21.2587 50.9219 20.2483C50.6927 19.2275 50.5781 18.0556 50.5781 16.7327ZM54.9531 15.6077V16.7327C54.9531 17.5244 54.9896 18.2067 55.0625 18.7796C55.1458 19.3421 55.276 19.8056 55.4531 20.1702C55.6406 20.5244 55.8854 20.79 56.1875 20.9671C56.4896 21.1337 56.8646 21.2171 57.3125 21.2171C57.8958 21.2171 58.3698 21.0712 58.7344 20.7796C59.099 20.4775 59.3698 20.066 59.5469 19.5452C59.7344 19.0139 59.8385 18.4046 59.8594 17.7171V14.7639C59.8385 14.191 59.7708 13.6754 59.6562 13.2171C59.5417 12.7587 59.3802 12.3681 59.1719 12.0452C58.9635 11.7223 58.7031 11.4723 58.3906 11.2952C58.0885 11.1181 57.7344 11.0296 57.3281 11.0296C56.8906 11.0296 56.5156 11.1181 56.2031 11.2952C55.901 11.4723 55.6615 11.7483 55.4844 12.1233C55.3073 12.4879 55.1719 12.9619 55.0781 13.5452C54.9948 14.1181 54.9531 14.8056 54.9531 15.6077ZM73.8438 24.9046C72.6875 24.9046 71.6615 24.7275 70.7656 24.3733C69.8802 24.0192 69.1302 23.5087 68.5156 22.8421C67.901 22.165 67.4323 21.3473 67.1094 20.3889C66.7865 19.4306 66.625 18.3369 66.625 17.1077V15.7171C66.625 14.3421 66.7812 13.1389 67.0938 12.1077C67.4062 11.066 67.849 10.191 68.4219 9.4827C68.9948 8.77436 69.6979 8.24832 70.5312 7.90457C71.375 7.5504 72.3281 7.37332 73.3906 7.37332C74.4531 7.37332 75.3854 7.5504 76.1875 7.90457C77 8.24832 77.6719 8.76915 78.2031 9.46707C78.7344 10.1546 79.1354 11.0087 79.4062 12.0296C79.6771 13.0504 79.8125 14.2379 79.8125 15.5921V17.5921H68.4844V14.5139H75.5156V14.1233C75.5156 13.4358 75.4427 12.8629 75.2969 12.4046C75.151 11.9358 74.9219 11.5869 74.6094 11.3577C74.2969 11.1285 73.8802 11.0139 73.3594 11.0139C72.9219 11.0139 72.5521 11.1025 72.25 11.2796C71.9479 11.4567 71.7083 11.7327 71.5312 12.1077C71.3542 12.4827 71.224 12.9723 71.1406 13.5764C71.0573 14.1702 71.0156 14.8837 71.0156 15.7171V17.1077C71.0156 17.8889 71.0833 18.5452 71.2188 19.0764C71.3542 19.5973 71.5521 20.0244 71.8125 20.3577C72.0833 20.6806 72.4115 20.915 72.7969 21.0608C73.1823 21.1962 73.6302 21.2639 74.1406 21.2639C74.9115 21.2639 75.6042 21.1285 76.2188 20.8577C76.8438 20.5764 77.375 20.1962 77.8125 19.7171L79.5625 22.3733C79.2604 22.7692 78.8438 23.165 78.3125 23.5608C77.7812 23.9567 77.1458 24.2796 76.4062 24.5296C75.6667 24.7796 74.8125 24.9046 73.8438 24.9046ZM86.75 11.1858V24.5921H82.3594V7.68582H86.4688L86.75 11.1858ZM86.1406 15.5608L84.9219 15.5921C84.901 14.4046 85.0052 13.3108 85.2344 12.3108C85.4635 11.3108 85.8073 10.441 86.2656 9.70145C86.7344 8.96186 87.3229 8.38895 88.0312 7.9827C88.75 7.57645 89.5781 7.37332 90.5156 7.37332C91.1198 7.37332 91.6823 7.4879 92.2031 7.71707C92.7344 7.93582 93.1875 8.28478 93.5625 8.76395C93.9479 9.2327 94.2448 9.84728 94.4531 10.6077C94.6615 11.3577 94.7656 12.2587 94.7656 13.3108V24.5921H90.4062V13.8421C90.4062 13.0921 90.3333 12.5192 90.1875 12.1233C90.0417 11.7171 89.8333 11.4358 89.5625 11.2796C89.2917 11.1129 88.9583 11.0296 88.5625 11.0296C88.1458 11.0296 87.7812 11.1442 87.4688 11.3733C87.1562 11.6025 86.901 11.9254 86.7031 12.3421C86.5156 12.7483 86.3698 13.2275 86.2656 13.7796C86.1719 14.3317 86.1302 14.9254 86.1406 15.5608ZM94.3594 15.1233L92.7969 15.3264C92.7656 14.2119 92.8594 13.1702 93.0781 12.2014C93.2969 11.2327 93.6354 10.3889 94.0938 9.6702C94.5521 8.95145 95.125 8.38895 95.8125 7.9827C96.5104 7.57645 97.3177 7.37332 98.2344 7.37332C98.9219 7.37332 99.5469 7.4879 100.109 7.71707C100.672 7.94624 101.151 8.31603 101.547 8.82645C101.953 9.32645 102.26 9.9879 102.469 10.8108C102.688 11.6233 102.797 12.6233 102.797 13.8108V24.5921H98.4062V13.8264C98.4062 13.066 98.3333 12.4827 98.1875 12.0764C98.0521 11.6702 97.849 11.3942 97.5781 11.2483C97.3073 11.1025 96.9792 11.0296 96.5938 11.0296C96.2188 11.0296 95.8906 11.1337 95.6094 11.3421C95.3385 11.5504 95.1094 11.8421 94.9219 12.2171C94.7344 12.5921 94.5938 13.0244 94.5 13.5139C94.4062 14.0035 94.3594 14.54 94.3594 15.1233Z" fill="#252420"/>
<path d="M110.391 11.2952V24.5921H106V7.68582H110.094L110.391 11.2952ZM109.734 15.5608L108.562 15.5921C108.542 14.3212 108.661 13.1806 108.922 12.1702C109.193 11.1598 109.573 10.3004 110.062 9.59207C110.562 8.87332 111.156 8.32645 111.844 7.95145C112.531 7.56603 113.307 7.37332 114.172 7.37332C114.828 7.37332 115.427 7.4879 115.969 7.71707C116.521 7.94624 116.995 8.31082 117.391 8.81082C117.786 9.31082 118.094 9.97228 118.312 10.7952C118.531 11.6181 118.641 12.6337 118.641 13.8421V24.5921H114.25V13.8108C114.25 13.0817 114.177 12.5192 114.031 12.1233C113.885 11.7171 113.667 11.4358 113.375 11.2796C113.094 11.1129 112.729 11.0296 112.281 11.0296C111.865 11.0296 111.495 11.1442 111.172 11.3733C110.849 11.6025 110.578 11.9254 110.359 12.3421C110.151 12.7483 109.99 13.2275 109.875 13.7796C109.771 14.3317 109.724 14.9254 109.734 15.5608ZM129.297 20.7014V12.8889C129.297 12.3785 129.234 11.9723 129.109 11.6702C128.995 11.3681 128.818 11.1494 128.578 11.0139C128.349 10.8681 128.068 10.7952 127.734 10.7952C127.359 10.7952 127.047 10.8733 126.797 11.0296C126.547 11.1858 126.359 11.4098 126.234 11.7014C126.12 11.9931 126.062 12.3421 126.062 12.7483H121.672C121.672 12.0192 121.812 11.3317 122.094 10.6858C122.375 10.0296 122.786 9.45665 123.328 8.96707C123.88 8.46707 124.536 8.07645 125.297 7.7952C126.057 7.51395 126.911 7.37332 127.859 7.37332C128.984 7.37332 129.984 7.56603 130.859 7.95145C131.734 8.32645 132.427 8.9254 132.938 9.74832C133.448 10.5712 133.703 11.6389 133.703 12.9514V20.4827C133.703 21.4306 133.75 22.2014 133.844 22.7952C133.948 23.3889 134.099 23.8994 134.297 24.3264V24.5921H129.891C129.693 24.1233 129.542 23.54 129.438 22.8421C129.344 22.1337 129.297 21.4202 129.297 20.7014ZM129.828 14.2639L129.844 16.8889H128.234C127.818 16.8889 127.453 16.9567 127.141 17.0921C126.839 17.2275 126.583 17.4202 126.375 17.6702C126.167 17.9098 126.01 18.191 125.906 18.5139C125.812 18.8369 125.766 19.1806 125.766 19.5452C125.766 19.9514 125.823 20.2952 125.938 20.5764C126.052 20.8577 126.224 21.0712 126.453 21.2171C126.682 21.3629 126.953 21.4358 127.266 21.4358C127.745 21.4358 128.161 21.3369 128.516 21.1389C128.87 20.941 129.13 20.7014 129.297 20.4202C129.474 20.1389 129.531 19.8785 129.469 19.6389L130.469 21.3421C130.344 21.7275 130.172 22.1285 129.953 22.5452C129.745 22.9619 129.479 23.3473 129.156 23.7014C128.833 24.0556 128.432 24.3473 127.953 24.5764C127.484 24.7952 126.927 24.9046 126.281 24.9046C125.375 24.9046 124.547 24.6962 123.797 24.2796C123.047 23.8629 122.453 23.2796 122.016 22.5296C121.589 21.7796 121.375 20.8889 121.375 19.8577C121.375 19.0035 121.51 18.2327 121.781 17.5452C122.062 16.8473 122.479 16.2587 123.031 15.7796C123.583 15.29 124.281 14.915 125.125 14.6546C125.969 14.3942 126.958 14.2639 128.094 14.2639H129.828ZM144.438 20.0296C144.438 19.7379 144.339 19.4775 144.141 19.2483C143.943 19.0192 143.63 18.7848 143.203 18.5452C142.776 18.2952 142.208 18.0192 141.5 17.7171C140.729 17.4046 140.047 17.0817 139.453 16.7483C138.859 16.415 138.354 16.0452 137.938 15.6389C137.531 15.2327 137.224 14.7692 137.016 14.2483C136.807 13.7275 136.703 13.1337 136.703 12.4671C136.703 11.7483 136.833 11.0869 137.094 10.4827C137.365 9.86811 137.75 9.33165 138.25 8.87332C138.75 8.40457 139.359 8.03999 140.078 7.77957C140.807 7.50874 141.625 7.37332 142.531 7.37332C143.802 7.37332 144.891 7.59728 145.797 8.0452C146.714 8.4827 147.417 9.09728 147.906 9.88895C148.396 10.6806 148.641 11.6025 148.641 12.6546H144.266C144.266 12.2796 144.208 11.9462 144.094 11.6546C143.979 11.3525 143.792 11.1181 143.531 10.9514C143.281 10.7848 142.943 10.7014 142.516 10.7014C142.203 10.7014 141.922 10.7692 141.672 10.9046C141.432 11.04 141.24 11.2223 141.094 11.4514C140.958 11.6702 140.891 11.9306 140.891 12.2327C140.891 12.4619 140.938 12.665 141.031 12.8421C141.135 13.0192 141.297 13.191 141.516 13.3577C141.734 13.5244 142.026 13.7014 142.391 13.8889C142.766 14.066 143.224 14.2639 143.766 14.4827C144.891 14.8994 145.812 15.3473 146.531 15.8264C147.26 16.3056 147.802 16.8681 148.156 17.5139C148.51 18.1494 148.688 18.9358 148.688 19.8733C148.688 20.6233 148.542 21.3056 148.25 21.9202C147.969 22.5348 147.557 23.066 147.016 23.5139C146.474 23.9619 145.823 24.3056 145.062 24.5452C144.312 24.7848 143.474 24.9046 142.547 24.9046C141.182 24.9046 140.031 24.6337 139.094 24.0921C138.156 23.5504 137.448 22.8577 136.969 22.0139C136.49 21.1598 136.25 20.2744 136.25 19.3577H140.406C140.427 19.9202 140.531 20.3629 140.719 20.6858C140.917 20.9983 141.182 21.2171 141.516 21.3421C141.849 21.4671 142.219 21.5296 142.625 21.5296C143.031 21.5296 143.365 21.4775 143.625 21.3733C143.896 21.2587 144.099 21.0869 144.234 20.8577C144.37 20.6181 144.438 20.3421 144.438 20.0296ZM155.734 0.592072V24.5921H151.359V0.592072H155.734ZM155.109 15.5608L153.922 15.5921C153.922 14.4046 154.042 13.3108 154.281 12.3108C154.521 11.3108 154.875 10.441 155.344 9.70145C155.823 8.96186 156.396 8.38895 157.062 7.9827C157.74 7.57645 158.484 7.37332 159.297 7.37332C159.995 7.37332 160.63 7.49311 161.203 7.7327C161.776 7.97228 162.271 8.34728 162.688 8.8577C163.115 9.36811 163.443 10.0452 163.672 10.8889C163.901 11.7223 164.016 12.7327 164.016 13.9202V24.5921H159.625V13.8889C159.625 13.1598 159.552 12.5869 159.406 12.1702C159.26 11.7535 159.042 11.4619 158.75 11.2952C158.458 11.1181 158.094 11.0296 157.656 11.0296C157.188 11.0296 156.786 11.1442 156.453 11.3733C156.13 11.6025 155.87 11.9254 155.672 12.3421C155.474 12.7483 155.328 13.2275 155.234 13.7796C155.151 14.3317 155.109 14.9254 155.109 15.5608ZM171.594 11.4514V24.5921H167.219V7.68582H171.344L171.594 11.4514ZM175.578 7.56082L175.516 11.9202C175.318 11.8785 175.078 11.8473 174.797 11.8264C174.526 11.8056 174.286 11.7952 174.078 11.7952C173.589 11.7952 173.172 11.8733 172.828 12.0296C172.484 12.1754 172.198 12.3994 171.969 12.7014C171.75 12.9931 171.583 13.3577 171.469 13.7952C171.354 14.2327 171.286 14.7275 171.266 15.2796L170.438 14.9671C170.438 13.8629 170.521 12.8525 170.688 11.9358C170.865 11.0087 171.125 10.2067 171.469 9.52957C171.812 8.84207 172.224 8.31082 172.703 7.93582C173.193 7.56082 173.745 7.37332 174.359 7.37332C174.568 7.37332 174.786 7.39415 175.016 7.43582C175.255 7.46707 175.443 7.50874 175.578 7.56082Z" fill="#FF7500"/>
</svg>
